<svg width="32" height="32" viewBox="0 0 32 32" fill="none" xmlns="http://www.w3.org/2000/svg">
  <g fill="white" stroke="white" stroke-linejoin="round">
    <rect x="2.5" y="9" width="27" height="14" rx="2.5" fill="none" stroke-width="1.8"/>

    <g stroke="none">
      <rect x="4.2" y="10.3" width="1.2" height="1.4" rx=".25"/>
      <rect x="5.9" y="10.3" width="1.2" height="1.4" rx=".25"/>
      <rect x="7.6" y="10.3" width="1.2" height="1.4" rx=".25"/>
      <rect x="9.3" y="10.3" width="1.2" height="1.4" rx=".25"/>
      <rect x="11" y="10.3" width="1.2" height="1.4" rx=".25"/>
      <rect x="12.7" y="10.3" width="1.2" height="1.4" rx=".25"/>
      <rect x="14.4" y="10.3" width="1.2" height="1.4" rx=".25"/>
      <rect x="16.1" y="10.3" width="1.2" height="1.4" rx=".25"/>
      <rect x="17.8" y="10.3" width="1.2" height="1.4" rx=".25"/>
      <rect x="19.5" y="10.3" width="1.2" height="1.4" rx=".25"/>
      <rect x="21.2" y="10.3" width="1.2" height="1.4" rx=".25"/>
      <rect x="22.9" y="10.3" width="1.2" height="1.4" rx=".25"/>
      <rect x="24.6" y="10.3" width="1.2" height="1.4" rx=".25"/>
      <rect x="26.3" y="10.3" width="1.2" height="1.4" rx=".25"/>

      <rect x="4.6" y="12.2" width="1.2" height="1.4" rx=".25"/>
      <rect x="6.3" y="12.2" width="1.2" height="1.4" rx=".25"/>
      <rect x="8" y="12.2" width="1.2" height="1.4" rx=".25"/>
      <rect x="9.7" y="12.2" width="1.2" height="1.4" rx=".25"/>
      <rect x="11.4" y="12.2" width="1.2" height="1.4" rx=".25"/>
      <rect x="13.1" y="12.2" width="1.2" height="1.4" rx=".25"/>
      <rect x="14.8" y="12.2" width="1.2" height="1.4" rx=".25"/>
      <rect x="16.5" y="12.2" width="1.2" height="1.4" rx=".25"/>
      <rect x="18.2" y="12.2" width="1.2" height="1.4" rx=".25"/>
      <rect x="19.9" y="12.2" width="1.2" height="1.4" rx=".25"/>
      <rect x="21.6" y="12.2" width="2.8" height="1.4" rx=".25"/>

      <rect x="5" y="14.1" width="1.2" height="1.4" rx=".25"/>
      <rect x="6.7" y="14.1" width="1.2" height="1.4" rx=".25"/>
      <rect x="8.4" y="14.1" width="1.2" height="1.4" rx=".25"/>
      <rect x="10.1" y="14.1" width="1.2" height="1.4" rx=".25"/>
      <rect x="11.8" y="14.1" width="1.2" height="1.4" rx=".25"/>
      <rect x="13.5" y="14.1" width="1.2" height="1.4" rx=".25"/>
      <rect x="15.2" y="14.1" width="1.2" height="1.4" rx=".25"/>
      <rect x="16.9" y="14.1" width="1.2" height="1.4" rx=".25"/>
      <rect x="18.6" y="14.1" width="1.2" height="1.4" rx=".25"/>
      <rect x="20.3" y="14.1" width="1.2" height="1.4" rx=".25"/>
      <rect x="22" y="14.1" width="3.5" height="1.4" rx=".25"/>

      <rect x="4.6" y="16" width="1.2" height="1.4" rx=".25"/>
      <rect x="6.3" y="16" width="1.2" height="1.4" rx=".25"/>
      <rect x="8" y="16" width="1.2" height="1.4" rx=".25"/>
      <rect x="10.5" y="16" width="11" height="1.4" rx=".25"/>
      <rect x="22.5" y="16" width="1.2" height="1.4" rx=".25"/>
      <rect x="24.2" y="16" width="1.2" height="1.4" rx=".25"/>
      <rect x="25.9" y="16" width="1.2" height="1.4" rx=".25"/>
    </g>
  </g>
</svg>
